<svg viewBox="0 0 1200 760" xmlns="http://www.w3.org/2000/svg" font-family="Arial, sans-serif" width="1200" height="760">
  <rect width="1200" height="760" fill="#f4f6f8"/>
  <text x="600" y="34" text-anchor="middle" font-size="18" font-weight="bold" fill="#1a1a2e">KHAUTA OTTM — Módulos y Servicios Funcionales</text>
  <text x="600" y="54" text-anchor="middle" font-size="11" fill="#888">Arquitectura de Capas — Banco de la República</text>

  <!-- Layer: Presentación -->
  <rect x="40" y="72" width="1120" height="118" rx="10" fill="#e8f4fb" stroke="#007CBB" stroke-width="1.5"/>
  <text x="60" y="90" font-size="10" font-weight="bold" fill="#007CBB">CAPA DE PRESENTACIÓN — Navegador Web (Chrome / Edge)</text>
  <rect x="60" y="98" width="180" height="78" rx="7" fill="white" stroke="#007CBB" stroke-width="1.5"/>
  <text x="150" y="120" text-anchor="middle" font-size="10" font-weight="bold" fill="#007CBB">Portal Operativo</text>
  <text x="150" y="136" text-anchor="middle" font-size="9" fill="#555">Registro y consulta</text>
  <text x="150" y="150" text-anchor="middle" font-size="9" fill="#555">de operaciones</text>
  <text x="150" y="164" text-anchor="middle" font-size="9" fill="#555">Windows 11+</text>
  <rect x="258" y="98" width="180" height="78" rx="7" fill="white" stroke="#007CBB" stroke-width="1.5"/>
  <text x="348" y="120" text-anchor="middle" font-size="10" font-weight="bold" fill="#007CBB">Panel de Administración</text>
  <text x="348" y="136" text-anchor="middle" font-size="9" fill="#555">Gestión de usuarios</text>
  <text x="348" y="150" text-anchor="middle" font-size="9" fill="#555">roles y permisos</text>
  <text x="348" y="164" text-anchor="middle" font-size="9" fill="#555">Parámetros del sistema</text>
  <rect x="456" y="98" width="180" height="78" rx="7" fill="white" stroke="#007CBB" stroke-width="1.5"/>
  <text x="546" y="120" text-anchor="middle" font-size="10" font-weight="bold" fill="#007CBB">Módulo de Reportes</text>
  <text x="546" y="136" text-anchor="middle" font-size="9" fill="#555">Consultas y dashboards</text>
  <text x="546" y="150" text-anchor="middle" font-size="9" fill="#555">Exportación CSV/PDF</text>
  <text x="546" y="164" text-anchor="middle" font-size="9" fill="#555">Trazabilidad de eventos</text>
  <rect x="654" y="98" width="180" height="78" rx="7" fill="white" stroke="#007CBB" stroke-width="1.5"/>
  <text x="744" y="120" text-anchor="middle" font-size="10" font-weight="bold" fill="#007CBB">Captura Biométrica</text>
  <text x="744" y="136" text-anchor="middle" font-size="9" fill="#555">Interfaz Morpho MSO 331</text>
  <text x="744" y="150" text-anchor="middle" font-size="9" fill="#555">Driver en endpoint</text>
  <text x="744" y="164" text-anchor="middle" font-size="9" fill="#555">Comunicación local</text>
  <rect x="852" y="98" width="180" height="78" rx="7" fill="white" stroke="#007CBB" stroke-width="1.5"/>
  <text x="942" y="120" text-anchor="middle" font-size="10" font-weight="bold" fill="#007CBB">Auditoría y Logs</text>
  <text x="942" y="136" text-anchor="middle" font-size="9" fill="#555">Registro de actividad</text>
  <text x="942" y="150" text-anchor="middle" font-size="9" fill="#555">Consulta de trazas</text>
  <text x="942" y="164" text-anchor="middle" font-size="9" fill="#555">Exportación de evidencias</text>
  <rect x="1050" y="98" width="98" height="78" rx="7" fill="white" stroke="#007CBB" stroke-width="1.5"/>
  <text x="1099" y="120" text-anchor="middle" font-size="10" font-weight="bold" fill="#007CBB">Notif.</text>
  <text x="1099" y="136" text-anchor="middle" font-size="9" fill="#555">Alertas</text>
  <text x="1099" y="150" text-anchor="middle" font-size="9" fill="#555">Email</text>
  <text x="1099" y="164" text-anchor="middle" font-size="9" fill="#555">In-app</text>

  <!-- Layer: Negocio -->
  <rect x="40" y="208" width="1120" height="148" rx="10" fill="#f0e8ff" stroke="#7b4dcd" stroke-width="1.5"/>
  <text x="60" y="226" font-size="10" font-weight="bold" fill="#7b4dcd">CAPA DE LÓGICA DE NEGOCIO — KHAUTA OTTM Core</text>
  <rect x="60" y="234" width="168" height="108" rx="7" fill="white" stroke="#7b4dcd" stroke-width="1.5"/>
  <text x="144" y="255" text-anchor="middle" font-size="10" font-weight="bold" fill="#7b4dcd">Gestión de</text>
  <text x="144" y="268" text-anchor="middle" font-size="10" font-weight="bold" fill="#7b4dcd">Identidad</text>
  <text x="144" y="285" text-anchor="middle" font-size="9" fill="#555">Registro biométrico</text>
  <text x="144" y="299" text-anchor="middle" font-size="9" fill="#555">Validación de identidad</text>
  <text x="144" y="313" text-anchor="middle" font-size="9" fill="#555">Morpho MSO 331</text>
  <rect x="244" y="234" width="168" height="108" rx="7" fill="white" stroke="#7b4dcd" stroke-width="1.5"/>
  <text x="328" y="255" text-anchor="middle" font-size="10" font-weight="bold" fill="#7b4dcd">Gestión de</text>
  <text x="328" y="268" text-anchor="middle" font-size="10" font-weight="bold" fill="#7b4dcd">Usuarios y Roles</text>
  <text x="328" y="285" text-anchor="middle" font-size="9" fill="#555">Perfiles de acceso</text>
  <text x="328" y="299" text-anchor="middle" font-size="9" fill="#555">Segregación funciones</text>
  <text x="328" y="313" text-anchor="middle" font-size="9" fill="#555">Mínimo privilegio</text>
  <rect x="428" y="234" width="168" height="108" rx="7" fill="white" stroke="#7b4dcd" stroke-width="1.5"/>
  <text x="512" y="255" text-anchor="middle" font-size="10" font-weight="bold" fill="#7b4dcd">Autenticación</text>
  <text x="512" y="268" text-anchor="middle" font-size="10" font-weight="bold" fill="#7b4dcd">y Sesiones</text>
  <text x="512" y="285" text-anchor="middle" font-size="9" fill="#555">Usuario + contraseña</text>
  <text x="512" y="299" text-anchor="middle" font-size="9" fill="#555">MFA - TOTP</text>
  <text x="512" y="313" text-anchor="middle" font-size="9" fill="#555">Timeout 2 min inactividad</text>
  <rect x="612" y="234" width="168" height="108" rx="7" fill="white" stroke="#7b4dcd" stroke-width="1.5"/>
  <text x="696" y="255" text-anchor="middle" font-size="10" font-weight="bold" fill="#7b4dcd">Motor de</text>
  <text x="696" y="268" text-anchor="middle" font-size="10" font-weight="bold" fill="#7b4dcd">Operaciones</text>
  <text x="696" y="285" text-anchor="middle" font-size="9" fill="#555">Flujos operativos</text>
  <text x="696" y="299" text-anchor="middle" font-size="9" fill="#555">Reglas de negocio</text>
  <text x="696" y="313" text-anchor="middle" font-size="9" fill="#555">Estados y trazabilidad</text>
  <rect x="796" y="234" width="168" height="108" rx="7" fill="white" stroke="#7b4dcd" stroke-width="1.5"/>
  <text x="880" y="255" text-anchor="middle" font-size="10" font-weight="bold" fill="#7b4dcd">Gestión de</text>
  <text x="880" y="268" text-anchor="middle" font-size="10" font-weight="bold" fill="#7b4dcd">Parámetros</text>
  <text x="880" y="285" text-anchor="middle" font-size="9" fill="#555">Configuración</text>
  <text x="880" y="299" text-anchor="middle" font-size="9" fill="#555">Ventanas mantenimiento</text>
  <text x="880" y="313" text-anchor="middle" font-size="9" fill="#555">Políticas de seguridad</text>
  <rect x="980" y="234" width="168" height="108" rx="7" fill="white" stroke="#7b4dcd" stroke-width="1.5"/>
  <text x="1064" y="255" text-anchor="middle" font-size="10" font-weight="bold" fill="#7b4dcd">Generación</text>
  <text x="1064" y="268" text-anchor="middle" font-size="10" font-weight="bold" fill="#7b4dcd">de Reportes</text>
  <text x="1064" y="285" text-anchor="middle" font-size="9" fill="#555">Reportes operativos</text>
  <text x="1064" y="299" text-anchor="middle" font-size="9" fill="#555">Métricas y disponibilidad</text>
  <text x="1064" y="313" text-anchor="middle" font-size="9" fill="#555">ANS / SLA</text>

  <!-- Layer: Integración -->
  <rect x="40" y="374" width="1120" height="118" rx="10" fill="#fff3e0" stroke="#FF9900" stroke-width="1.5"/>
  <text x="60" y="392" font-size="10" font-weight="bold" fill="#FF9900">CAPA DE INTEGRACIÓN</text>
  <rect x="60" y="400" width="210" height="78" rx="7" fill="white" stroke="#FF9900" stroke-width="1.5"/>
  <text x="165" y="422" text-anchor="middle" font-size="10" font-weight="bold" fill="#FF9900">API REST</text>
  <text x="165" y="438" text-anchor="middle" font-size="9" fill="#555">Servicios Banco República</text>
  <text x="165" y="452" text-anchor="middle" font-size="9" fill="#555">HTTPS / TLS 1.2+ / JSON</text>
  <text x="165" y="466" text-anchor="middle" font-size="9" fill="#555">Auth: token / credencial</text>
  <rect x="288" y="400" width="210" height="78" rx="7" fill="white" stroke="#FF9900" stroke-width="1.5"/>
  <text x="393" y="422" text-anchor="middle" font-size="10" font-weight="bold" fill="#FF9900">Proveedor Biométrico</text>
  <text x="393" y="438" text-anchor="middle" font-size="9" fill="#555">API validación huella</text>
  <text x="393" y="452" text-anchor="middle" font-size="9" fill="#555">Morpho MSO 331</text>
  <text x="393" y="466" text-anchor="middle" font-size="9" fill="#555">Driver Windows 11+</text>
  <rect x="516" y="400" width="210" height="78" rx="7" fill="white" stroke="#FF9900" stroke-width="1.5"/>
  <text x="621" y="422" text-anchor="middle" font-size="10" font-weight="bold" fill="#FF9900">MFA - TOTP</text>
  <text x="621" y="438" text-anchor="middle" font-size="9" fill="#555">Google Authenticator</text>
  <text x="621" y="452" text-anchor="middle" font-size="9" fill="#555">Microsoft Authenticator</text>
  <text x="621" y="466" text-anchor="middle" font-size="9" fill="#555">Estándar TOTP/HOTP</text>
  <rect x="744" y="400" width="210" height="78" rx="7" fill="white" stroke="#FF9900" stroke-width="1.5"/>
  <text x="849" y="422" text-anchor="middle" font-size="10" font-weight="bold" fill="#FF9900">Notificaciones</text>
  <text x="849" y="438" text-anchor="middle" font-size="9" fill="#555">AWS SES (email)</text>
  <text x="849" y="452" text-anchor="middle" font-size="9" fill="#555">AWS SNS (alertas)</text>
  <text x="849" y="466" text-anchor="middle" font-size="9" fill="#555">SMTP corporativo banco</text>
  <rect x="972" y="400" width="176" height="78" rx="7" fill="white" stroke="#FF9900" stroke-width="1.5"/>
  <text x="1060" y="422" text-anchor="middle" font-size="10" font-weight="bold" fill="#FF9900">Monitoreo Externo</text>
  <text x="1060" y="438" text-anchor="middle" font-size="9" fill="#555">Herramientas banco</text>
  <text x="1060" y="452" text-anchor="middle" font-size="9" fill="#555">CloudWatch metrics</text>
  <text x="1060" y="466" text-anchor="middle" font-size="9" fill="#555">API estado servicios</text>

  <!-- Layer: Datos -->
  <rect x="40" y="510" width="1120" height="108" rx="10" fill="#e0f7f4" stroke="#00758F" stroke-width="1.5"/>
  <text x="60" y="528" font-size="10" font-weight="bold" fill="#00758F">CAPA DE DATOS Y PERSISTENCIA</text>
  <rect x="60" y="536" width="220" height="68" rx="7" fill="white" stroke="#00758F" stroke-width="1.5"/>
  <text x="170" y="558" text-anchor="middle" font-size="10" font-weight="bold" fill="#00758F">RDS MySQL</text>
  <text x="170" y="574" text-anchor="middle" font-size="9" fill="#555">BD principal · Multi-AZ</text>
  <text x="170" y="588" text-anchor="middle" font-size="9" fill="#555">Cifrado AES-256 / KMS</text>
  <rect x="298" y="536" width="220" height="68" rx="7" fill="white" stroke="#00758F" stroke-width="1.5"/>
  <text x="408" y="558" text-anchor="middle" font-size="10" font-weight="bold" fill="#00758F">S3 + Object Lock</text>
  <text x="408" y="574" text-anchor="middle" font-size="9" fill="#555">Logs inmutables</text>
  <text x="408" y="588" text-anchor="middle" font-size="9" fill="#555">Backups / Evidencias</text>
  <rect x="536" y="536" width="220" height="68" rx="7" fill="white" stroke="#00758F" stroke-width="1.5"/>
  <text x="646" y="558" text-anchor="middle" font-size="10" font-weight="bold" fill="#00758F">CloudWatch</text>
  <text x="646" y="574" text-anchor="middle" font-size="9" fill="#555">Logs centralizados</text>
  <text x="646" y="588" text-anchor="middle" font-size="9" fill="#555">Métricas y alarmas</text>
  <rect x="774" y="536" width="220" height="68" rx="7" fill="white" stroke="#00758F" stroke-width="1.5"/>
  <text x="884" y="558" text-anchor="middle" font-size="10" font-weight="bold" fill="#00758F">Secrets Manager / KMS</text>
  <text x="884" y="574" text-anchor="middle" font-size="9" fill="#555">Credenciales cifradas</text>
  <text x="884" y="588" text-anchor="middle" font-size="9" fill="#555">Rotación automática</text>
  <rect x="1012" y="536" width="136" height="68" rx="7" fill="white" stroke="#00758F" stroke-width="1.5"/>
  <text x="1080" y="558" text-anchor="middle" font-size="10" font-weight="bold" fill="#00758F">EBS</text>
  <text x="1080" y="574" text-anchor="middle" font-size="9" fill="#555">Volúmenes EC2</text>
  <text x="1080" y="588" text-anchor="middle" font-size="9" fill="#555">Cifrado KMS</text>

  <!-- Layer: Seguridad transversal -->
  <rect x="40" y="636" width="1120" height="100" rx="10" fill="#fff0f0" stroke="#CC3300" stroke-width="1.5"/>
  <text x="60" y="654" font-size="10" font-weight="bold" fill="#CC3300">CAPA DE SEGURIDAD TRANSVERSAL — ISO 27001</text>
  <text x="168" y="682" text-anchor="middle" font-size="9" fill="#900">AWS WAF</text>
  <text x="168" y="698" text-anchor="middle" font-size="8" fill="#555">Firewall aplicación</text>
  <text x="336" y="682" text-anchor="middle" font-size="9" fill="#900">Shield (Anti-DDoS)</text>
  <text x="336" y="698" text-anchor="middle" font-size="8" fill="#555">Protección perimetral</text>
  <text x="504" y="682" text-anchor="middle" font-size="9" fill="#900">IAM + MFA</text>
  <text x="504" y="698" text-anchor="middle" font-size="8" fill="#555">Acceso administrativo</text>
  <text x="672" y="682" text-anchor="middle" font-size="9" fill="#900">KMS · TLS 1.2+</text>
  <text x="672" y="698" text-anchor="middle" font-size="8" fill="#555">Cifrado tránsito/reposo</text>
  <text x="840" y="682" text-anchor="middle" font-size="9" fill="#900">VPC + Security Groups</text>
  <text x="840" y="698" text-anchor="middle" font-size="8" fill="#555">Segmentación de red</text>
  <text x="1008" y="682" text-anchor="middle" font-size="9" fill="#900">GuardDuty · Config</text>
  <text x="1008" y="698" text-anchor="middle" font-size="8" fill="#555">Detección amenazas</text>
  <text x="1140" y="682" text-anchor="middle" font-size="9" fill="#900">Hardening CIS</text>
  <text x="1140" y="698" text-anchor="middle" font-size="8" fill="#555">OWASP / SSDLC</text>
  <line x1="252" y1="655" x2="252" y2="720" stroke="#CC3300" stroke-width="1" stroke-dasharray="3,2"/>
  <line x1="420" y1="655" x2="420" y2="720" stroke="#CC3300" stroke-width="1" stroke-dasharray="3,2"/>
  <line x1="588" y1="655" x2="588" y2="720" stroke="#CC3300" stroke-width="1" stroke-dasharray="3,2"/>
  <line x1="756" y1="655" x2="756" y2="720" stroke="#CC3300" stroke-width="1" stroke-dasharray="3,2"/>
  <line x1="924" y1="655" x2="924" y2="720" stroke="#CC3300" stroke-width="1" stroke-dasharray="3,2"/>
  <line x1="1078" y1="655" x2="1078" y2="720" stroke="#CC3300" stroke-width="1" stroke-dasharray="3,2"/>
</svg>
