<svg viewBox="0 0 1100 580" xmlns="http://www.w3.org/2000/svg" font-family="Arial, sans-serif" width="1100" height="580">
  <rect width="1100" height="580" fill="#f4f6f8"/>
  <text x="550" y="30" text-anchor="middle" font-size="17" font-weight="bold" fill="#1a1a2e">KHAUTA OTTM — Arquitectura Multi-Región · DR</text>
  <text x="550" y="48" text-anchor="middle" font-size="10" fill="#888">us-east-1 Norte de Virginia (Primario) · us-east-2 Ohio (Contingencia) · Disponibilidad 99.5%</text>

  <defs>
    <marker id="m1" markerWidth="7" markerHeight="7" refX="5" refY="3" orient="auto"><path d="M0,0 L0,6 L7,3 z" fill="#8C4FFF"/></marker>
    <marker id="m2" markerWidth="7" markerHeight="7" refX="5" refY="3" orient="auto"><path d="M0,0 L0,6 L7,3 z" fill="#d6b656"/></marker>
    <marker id="m3" markerWidth="7" markerHeight="7" refX="5" refY="3" orient="auto"><path d="M0,0 L0,6 L7,3 z" fill="#888"/></marker>
    <marker id="m4" markerWidth="7" markerHeight="7" refX="5" refY="3" orient="auto"><path d="M0,0 L0,6 L7,3 z" fill="#1A73E8"/></marker>
  </defs>

  <!-- Route 53 -->
  <rect x="380" y="62" width="340" height="52" rx="8" fill="#f0eaff" stroke="#8C4FFF" stroke-width="2"/>
  <text x="550" y="84" text-anchor="middle" font-size="12" font-weight="bold" fill="#5b00c8">Amazon Route 53</text>
  <text x="550" y="100" text-anchor="middle" font-size="9" fill="#7a5cc8">DNS con failover automático · Health Checks activos · TTL bajo</text>

  <line x1="440" y1="114" x2="280" y2="148" stroke="#1A73E8" stroke-width="2" marker-end="url(#m4)"/>
  <line x1="660" y1="114" x2="820" y2="148" stroke="#888" stroke-width="2" stroke-dasharray="5,3" marker-end="url(#m3)"/>
  <text x="340" y="138" font-size="9" fill="#1A73E8" font-weight="bold">Activo (primario)</text>
  <text x="700" y="138" font-size="9" fill="#888">Failover (standby)</text>

  <!-- Region PRIMARY -->
  <rect x="28" y="148" width="494" height="404" rx="12" fill="none" stroke="#1A73E8" stroke-width="2.5"/>
  <rect x="28" y="136" width="230" height="22" rx="5" fill="#1A73E8"/>
  <text x="143" y="151" text-anchor="middle" font-size="11" font-weight="bold" fill="white">us-east-1 — Norte de Virginia</text>
  <rect x="42" y="158" width="80" height="18" rx="4" fill="#28a745"/>
  <text x="82" y="171" text-anchor="middle" font-size="9" font-weight="bold" fill="white">PRIMARIO</text>

  <!-- AZ-a primary -->
  <rect x="44" y="180" width="222" height="358" rx="8" fill="#e6f4fb" stroke="#007CBB" stroke-width="1" stroke-dasharray="4,3"/>
  <text x="155" y="196" text-anchor="middle" font-size="9" font-weight="bold" fill="#007CBB">AZ us-east-1a</text>
  <rect x="56" y="204" width="198" height="38" rx="6" fill="white" stroke="#FF9900" stroke-width="1.5"/>
  <text x="155" y="220" text-anchor="middle" font-size="9" font-weight="bold" fill="#FF9900">ALB · WAF · Shield</text>
  <text x="155" y="234" text-anchor="middle" font-size="8" fill="#555">HTTPS 443 · ACM</text>
  <rect x="56" y="252" width="198" height="54" rx="6" fill="white" stroke="#1A73E8" stroke-width="1.5"/>
  <text x="155" y="270" text-anchor="middle" font-size="9" font-weight="bold" fill="#1A73E8">EC2 — KHAUTA OTTM</text>
  <text x="155" y="284" text-anchor="middle" font-size="8" fill="#555">App + Nginx · Docker</text>
  <text x="155" y="298" text-anchor="middle" font-size="8" fill="#555">EBS cifrado KMS</text>
  <rect x="56" y="316" width="198" height="54" rx="6" fill="white" stroke="#00758F" stroke-width="1.5"/>
  <text x="155" y="334" text-anchor="middle" font-size="9" font-weight="bold" fill="#00758F">RDS MySQL — Primary</text>
  <text x="155" y="348" text-anchor="middle" font-size="8" fill="#555">Multi-AZ activo · Escritura</text>
  <text x="155" y="362" text-anchor="middle" font-size="8" fill="#555">Backup 30 días · KMS</text>
  <rect x="56" y="380" width="198" height="46" rx="6" fill="white" stroke="#FF9900" stroke-width="1"/>
  <text x="155" y="398" text-anchor="middle" font-size="9" font-weight="bold" fill="#FF9900">S3 + CloudWatch</text>
  <text x="155" y="412" text-anchor="middle" font-size="8" fill="#555">Logs inmutables · Backups</text>
  <rect x="56" y="436" width="198" height="90" rx="6" fill="white" stroke="#8C4FFF" stroke-width="1"/>
  <text x="155" y="454" text-anchor="middle" font-size="9" font-weight="bold" fill="#5b00c8">Seguridad</text>
  <text x="155" y="470" text-anchor="middle" font-size="8" fill="#555">WAF · Shield · IAM · MFA</text>
  <text x="155" y="484" text-anchor="middle" font-size="8" fill="#555">KMS · Secrets Manager</text>
  <text x="155" y="498" text-anchor="middle" font-size="8" fill="#555">GuardDuty · VPC Flow Logs</text>
  <text x="155" y="512" text-anchor="middle" font-size="8" fill="#555">Hardening CIS · ISO 27001</text>

  <!-- AZ-b primary -->
  <rect x="278" y="180" width="230" height="358" rx="8" fill="#e6f4fb" stroke="#007CBB" stroke-width="1" stroke-dasharray="4,3"/>
  <text x="393" y="196" text-anchor="middle" font-size="9" font-weight="bold" fill="#007CBB">AZ us-east-1b</text>
  <rect x="290" y="204" width="206" height="38" rx="6" fill="white" stroke="#FF9900" stroke-width="1" stroke-dasharray="3,2"/>
  <text x="393" y="225" text-anchor="middle" font-size="9" fill="#aaa">ALB — nodo HA</text>
  <rect x="290" y="252" width="206" height="54" rx="6" fill="white" stroke="#1A73E8" stroke-width="1" stroke-dasharray="3,2"/>
  <text x="393" y="272" text-anchor="middle" font-size="9" fill="#aaa">EC2 — Auto Scaling</text>
  <text x="393" y="286" text-anchor="middle" font-size="8" fill="#bbb">Escalado horizontal</text>
  <rect x="290" y="316" width="206" height="54" rx="6" fill="white" stroke="#00758F" stroke-width="1.5"/>
  <text x="393" y="334" text-anchor="middle" font-size="9" font-weight="bold" fill="#00758F">RDS — Standby Multi-AZ</text>
  <text x="393" y="348" text-anchor="middle" font-size="8" fill="#555">Réplica síncrona</text>
  <text x="393" y="362" text-anchor="middle" font-size="8" fill="#555">Failover automático &lt;60s</text>
  <rect x="290" y="380" width="206" height="156" rx="6" fill="#f9f9f9" stroke="#ccc" stroke-width="1" stroke-dasharray="3,2"/>
  <text x="393" y="450" text-anchor="middle" font-size="9" fill="#aaa">Servicios espejados</text>
  <text x="393" y="466" text-anchor="middle" font-size="8" fill="#bbb">Alta disponibilidad intra-región</text>

  <!-- Replication arrow -->
  <line x1="522" y1="360" x2="578" y2="360" stroke="#d6b656" stroke-width="2" stroke-dasharray="6,3" marker-end="url(#m2)"/>
  <text x="550" y="352" text-anchor="middle" font-size="8" fill="#d6b656">Réplica</text>
  <text x="550" y="372" text-anchor="middle" font-size="8" fill="#d6b656">asíncrona</text>

  <!-- Region DR -->
  <rect x="578" y="148" width="494" height="404" rx="12" fill="none" stroke="#888" stroke-width="2" stroke-dasharray="8,4"/>
  <rect x="578" y="136" width="190" height="22" rx="5" fill="#888"/>
  <text x="673" y="151" text-anchor="middle" font-size="11" font-weight="bold" fill="white">us-east-2 — Ohio</text>
  <rect x="592" y="158" width="130" height="18" rx="4" fill="#e6a817"/>
  <text x="657" y="171" text-anchor="middle" font-size="9" font-weight="bold" fill="white">CONTINGENCIA / DR</text>

  <rect x="594" y="180" width="460" height="200" rx="8" fill="#f9f9f9" stroke="#ccc" stroke-width="1" stroke-dasharray="4,3"/>
  <text x="824" y="198" text-anchor="middle" font-size="9" font-weight="bold" fill="#888">Infraestructura espejo — Warm Standby</text>
  <rect x="608" y="206" width="200" height="160" rx="6" fill="white" stroke="#ccc" stroke-width="1"/>
  <text x="708" y="228" text-anchor="middle" font-size="9" fill="#aaa">ALB + EC2</text>
  <text x="708" y="244" text-anchor="middle" font-size="8" fill="#bbb">App KHAUTA OTTM</text>
  <text x="708" y="260" text-anchor="middle" font-size="8" fill="#bbb">En espera · Activable</text>
  <text x="708" y="276" text-anchor="middle" font-size="8" fill="#bbb">por Route 53 failover</text>
  <rect x="836" y="206" width="200" height="160" rx="6" fill="white" stroke="#ccc" stroke-width="1"/>
  <text x="936" y="228" text-anchor="middle" font-size="9" fill="#aaa">RDS MySQL — Replica</text>
  <text x="936" y="244" text-anchor="middle" font-size="8" fill="#bbb">Réplica asíncrona</text>
  <text x="936" y="260" text-anchor="middle" font-size="8" fill="#bbb">desde us-east-1</text>
  <text x="936" y="276" text-anchor="middle" font-size="8" fill="#bbb">RPO objetivo: 15 min</text>
  <text x="936" y="292" text-anchor="middle" font-size="8" fill="#bbb">Snapshots diarios</text>
  <text x="936" y="308" text-anchor="middle" font-size="8" fill="#bbb">S3 Cross-Region Repl.</text>

  <!-- Continuity box -->
  <rect x="594" y="394" width="460" height="148" rx="8" fill="#fffbe6" stroke="#d6b656" stroke-width="1.5"/>
  <text x="824" y="414" text-anchor="middle" font-size="11" font-weight="bold" fill="#7a6000">Plan de Continuidad — Banco de la República</text>
  <text x="824" y="434" text-anchor="middle" font-size="9" fill="#7a6000">Disponibilidad objetivo:  99.5% mensual</text>
  <text x="824" y="452" text-anchor="middle" font-size="9" fill="#7a6000">RTO (Recovery Time Objective):  30 minutos</text>
  <text x="824" y="470" text-anchor="middle" font-size="9" fill="#7a6000">RPO (Recovery Point Objective):  15 minutos</text>
  <text x="824" y="488" text-anchor="middle" font-size="9" fill="#7a6000">Activación DR:  Route 53 failover automático</text>
  <text x="824" y="506" text-anchor="middle" font-size="9" fill="#7a6000">Backups:  S3 Cross-Region · Snapshots RDS diarios</text>
  <text x="824" y="524" text-anchor="middle" font-size="9" fill="#7a6000">Pruebas DR:  periódicas y documentadas (PL-SGSI-001)</text>
</svg>
