<svg viewBox="0 0 1100 520" xmlns="http://www.w3.org/2000/svg" font-family="Arial, sans-serif" width="1100" height="520">
  <rect width="1100" height="520" fill="#f4f6f8"/>
  <text x="550" y="30" text-anchor="middle" font-size="17" font-weight="bold" fill="#1a1a2e">KHAUTA OTTM — Ambientes de Despliegue</text>
  <text x="550" y="48" text-anchor="middle" font-size="10" fill="#888">Ambientes independientes y dedicados · AWS us-east-1 · Sin multi-tenancy</text>

  <defs>
    <marker id="p1" markerWidth="7" markerHeight="7" refX="5" refY="3" orient="auto"><path d="M0,0 L0,6 L7,3 z" fill="#555"/></marker>
  </defs>

  <!-- Pipeline -->
  <rect x="100" y="68" width="130" height="36" rx="7" fill="#e8e8e8" stroke="#aaa" stroke-width="1.5"/>
  <text x="165" y="84" text-anchor="middle" font-size="10" font-weight="bold" fill="#333">Repositorio</text>
  <text x="165" y="97" text-anchor="middle" font-size="9" fill="#555">Git / CodeCommit</text>
  <rect x="320" y="68" width="160" height="36" rx="7" fill="#e8e8e8" stroke="#aaa" stroke-width="1.5"/>
  <text x="400" y="84" text-anchor="middle" font-size="10" font-weight="bold" fill="#333">CI/CD Pipeline</text>
  <text x="400" y="97" text-anchor="middle" font-size="9" fill="#555">CodePipeline / GitHub Actions</text>
  <line x1="230" y1="86" x2="320" y2="86" stroke="#555" stroke-width="1.5" marker-end="url(#p1)"/>
  <!-- branches -->
  <line x1="480" y1="86" x2="540" y2="86" stroke="#555" stroke-width="1.5"/>
  <line x1="540" y1="86" x2="540" y2="152" stroke="#555" stroke-width="1.5"/>
  <line x1="165" y1="152" x2="900" y2="152" stroke="#555" stroke-width="1"/>
  <line x1="165" y1="152" x2="165" y2="182" stroke="#1976D2" stroke-width="1.5" marker-end="url(#p1)"/>
  <line x1="540" y1="152" x2="540" y2="182" stroke="#e6a817" stroke-width="1.5" marker-end="url(#p1)"/>
  <line x1="900" y1="152" x2="900" y2="182" stroke="#28a745" stroke-width="1.5" marker-end="url(#p1)"/>

  <!-- QA -->
  <rect x="28" y="182" width="274" height="306" rx="10" fill="none" stroke="#1976D2" stroke-width="2"/>
  <rect x="28" y="170" width="80" height="22" rx="5" fill="#1976D2"/>
  <text x="68" y="185" text-anchor="middle" font-size="11" font-weight="bold" fill="white">QA</text>
  <text x="165" y="216" text-anchor="middle" font-size="9" fill="#555">Pruebas funcionales y técnicas</text>
  <rect x="44" y="224" width="242" height="46" rx="6" fill="white" stroke="#1976D2" stroke-width="1.5"/>
  <text x="165" y="243" text-anchor="middle" font-size="10" font-weight="bold" fill="#1976D2">EC2 t3.small</text>
  <text x="165" y="259" text-anchor="middle" font-size="9" fill="#555">App KHAUTA OTTM · Docker</text>
  <rect x="44" y="278" width="242" height="46" rx="6" fill="white" stroke="#1976D2" stroke-width="1.5"/>
  <text x="165" y="297" text-anchor="middle" font-size="10" font-weight="bold" fill="#1976D2">RDS MySQL db.t3.micro</text>
  <text x="165" y="313" text-anchor="middle" font-size="9" fill="#555">Sin Multi-AZ · Backup 3 días</text>
  <rect x="44" y="332" width="242" height="46" rx="6" fill="white" stroke="#1976D2" stroke-width="1.5"/>
  <text x="165" y="351" text-anchor="middle" font-size="10" font-weight="bold" fill="#1976D2">ALB + ACM</text>
  <text x="165" y="367" text-anchor="middle" font-size="9" fill="#555">qa.khauta.dominio · HTTPS</text>
  <rect x="44" y="386" width="242" height="92" rx="6" fill="#e8f4fb" stroke="#1976D2" stroke-width="1"/>
  <text x="165" y="406" text-anchor="middle" font-size="9" font-weight="bold" fill="#1976D2">Condiciones</text>
  <text x="165" y="422" text-anchor="middle" font-size="9" fill="#1976D2">Acceso: equipo técnico Intellygence</text>
  <text x="165" y="438" text-anchor="middle" font-size="9" fill="#1976D2">Datos: sintéticos / anonimizados</text>
  <text x="165" y="454" text-anchor="middle" font-size="9" fill="#1976D2">Deploy: automático en merge a dev</text>
  <text x="165" y="470" text-anchor="middle" font-size="9" fill="#1976D2">Biométrico: simulado / mock</text>

  <!-- STG -->
  <rect x="413" y="182" width="274" height="306" rx="10" fill="none" stroke="#e6a817" stroke-width="2"/>
  <rect x="413" y="170" width="120" height="22" rx="5" fill="#e6a817"/>
  <text x="473" y="185" text-anchor="middle" font-size="11" font-weight="bold" fill="white">STAGING / UAT</text>
  <text x="550" y="216" text-anchor="middle" font-size="9" fill="#555">Preproducción · Aceptación Banco</text>
  <rect x="429" y="224" width="242" height="46" rx="6" fill="white" stroke="#e6a817" stroke-width="1.5"/>
  <text x="550" y="243" text-anchor="middle" font-size="10" font-weight="bold" fill="#a06000">EC2 t3.medium</text>
  <text x="550" y="259" text-anchor="middle" font-size="9" fill="#555">App KHAUTA OTTM · Docker</text>
  <rect x="429" y="278" width="242" height="46" rx="6" fill="white" stroke="#e6a817" stroke-width="1.5"/>
  <text x="550" y="297" text-anchor="middle" font-size="10" font-weight="bold" fill="#a06000">RDS MySQL db.t3.small</text>
  <text x="550" y="313" text-anchor="middle" font-size="9" fill="#555">Sin Multi-AZ · Backup 7 días</text>
  <rect x="429" y="332" width="242" height="46" rx="6" fill="white" stroke="#e6a817" stroke-width="1.5"/>
  <text x="550" y="351" text-anchor="middle" font-size="10" font-weight="bold" fill="#a06000">ALB + ACM + WAF</text>
  <text x="550" y="367" text-anchor="middle" font-size="9" fill="#555">stg.khauta.dominio · HTTPS</text>
  <rect x="429" y="386" width="242" height="92" rx="6" fill="#fffbe6" stroke="#e6a817" stroke-width="1"/>
  <text x="550" y="406" text-anchor="middle" font-size="9" font-weight="bold" fill="#a06000">Condiciones</text>
  <text x="550" y="422" text-anchor="middle" font-size="9" fill="#a06000">Acceso: Banco República + Intellygence</text>
  <text x="550" y="438" text-anchor="middle" font-size="9" fill="#a06000">Datos: copia anonimizada de PRD</text>
  <text x="550" y="454" text-anchor="middle" font-size="9" fill="#a06000">Deploy: manual con aprobación</text>
  <text x="550" y="470" text-anchor="middle" font-size="9" fill="#a06000">Biométrico: Morpho MSO 331 real</text>

  <!-- PRD -->
  <rect x="798" y="182" width="274" height="306" rx="10" fill="none" stroke="#28a745" stroke-width="2.5"/>
  <rect x="798" y="170" width="140" height="22" rx="5" fill="#28a745"/>
  <text x="868" y="185" text-anchor="middle" font-size="11" font-weight="bold" fill="white">PRODUCCIÓN</text>
  <text x="900" y="216" text-anchor="middle" font-size="9" fill="#555">Ambiente operativo · Banco de la República</text>
  <rect x="814" y="224" width="242" height="46" rx="6" fill="white" stroke="#28a745" stroke-width="1.5"/>
  <text x="935" y="243" text-anchor="middle" font-size="10" font-weight="bold" fill="#28a745">EC2 t3.medium+ · Multi-AZ</text>
  <text x="935" y="259" text-anchor="middle" font-size="9" fill="#555">App KHAUTA OTTM · Docker · EBS KMS</text>
  <rect x="814" y="278" width="242" height="46" rx="6" fill="white" stroke="#28a745" stroke-width="1.5"/>
  <text x="935" y="297" text-anchor="middle" font-size="10" font-weight="bold" fill="#28a745">RDS MySQL db.t3.medium</text>
  <text x="935" y="313" text-anchor="middle" font-size="9" fill="#555">Multi-AZ · Backup 30 días · Réplica DR</text>
  <rect x="814" y="332" width="242" height="46" rx="6" fill="white" stroke="#28a745" stroke-width="1.5"/>
  <text x="935" y="351" text-anchor="middle" font-size="10" font-weight="bold" fill="#28a745">ALB + WAF + Shield + ACM</text>
  <text x="935" y="367" text-anchor="middle" font-size="9" fill="#555">app.khauta.dominio · HTTPS · Anti-DDoS</text>
  <rect x="814" y="386" width="242" height="92" rx="6" fill="#e8f5e9" stroke="#28a745" stroke-width="1"/>
  <text x="935" y="406" text-anchor="middle" font-size="9" font-weight="bold" fill="#28a745">Condiciones</text>
  <text x="935" y="422" text-anchor="middle" font-size="9" fill="#28a745">Acceso: usuarios Banco República</text>
  <text x="935" y="438" text-anchor="middle" font-size="9" fill="#28a745">Deploy: ventana cambio aprobada</text>
  <text x="935" y="454" text-anchor="middle" font-size="9" fill="#28a745">Monitoreo: CloudWatch 24/7 + alertas</text>
  <text x="935" y="470" text-anchor="middle" font-size="9" fill="#28a745">Biométrico: Morpho MSO 331 productivo</text>
</svg>
